0
SECTION
2
HEADER
9
$INSUNITS
70
4
9
$ACADVER
1
AC1014
9
$HANDSEED
5
FFFF
0
ENDSEC
0
SECTION
2
TABLES
0
TABLE
2
VPORT
5
8
100
AcDbSymbolTable
0
ENDTAB
0
TABLE
2
LTYPE
5
5
100
AcDbSymbolTable
0
LTYPE
5
14
100
AcDbSymbolTableRecord
100
AcDbLinetypeTableRecord
2
BYBLOCK
70
0
0
LTYPE
5
15
100
AcDbSymbolTableRecord
100
AcDbLinetypeTableRecord
2
BYLAYER
70
0
0
ENDTAB
0
TABLE
2
LAYER
5
2
100
AcDbSymbolTable
70
2
0
LAYER
5
50
100
AcDbSymbolTableRecord
100
AcDbLayerTableRecord
2
0
70
0
6
CONTINUOUS
0
ENDTAB
0
TABLE
2
STYLE
5
3
100
AcDbSymbolTable
70
1
0
STYLE
5
11
100
AcDbSymbolTableRecord
100
AcDbTextStyleTableRecord
2
STANDARD
70
0
0
ENDTAB
0
TABLE
2
VIEW
5
6
100
AcDbSymbolTable
70
0
0
ENDTAB
0
TABLE
2
UCS
5
7
100
AcDbSymbolTable
70
0
0
ENDTAB
0
TABLE
2
APPID
5
9
100
AcDbSymbolTable
70
2
0
APPID
5
12
100
AcDbSymbolTableRecord
100
AcDbRegAppTableRecord
2
ACAD
70
0
0
ENDTAB
0
TABLE
2
DIMSTYLE
5
A
100
AcDbSymbolTable
70
1
0
ENDTAB
0
TABLE
2
BLOCK_RECORD
5
1
100
AcDbSymbolTable
70
1
0
BLOCK_RECORD
5
1F
100
AcDbSymbolTableRecord
100
AcDbBlockTableRecord
2
*MODEL_SPACE
0
BLOCK_RECORD
5
1B
100
AcDbSymbolTableRecord
100
AcDbBlockTableRecord
2
*PAPER_SPACE
0
ENDTAB
0
ENDSEC
0
SECTION
2
BLOCKS
0
BLOCK
5
20
100
AcDbEntity
100
AcDbBlockBegin
2
*MODEL_SPACE
0
ENDBLK
5
21
100
AcDbEntity
100
AcDbBlockEnd
0
BLOCK
5
1C
100
AcDbEntity
100
AcDbBlockBegin
2
*PAPER_SPACE
0
ENDBLK
5
1D
100
AcDbEntity
100
AcDbBlockEnd
0
ENDSEC
0
SECTION
2
ENTITIES
0
LWPOLYLINE
5
100
100
AcDbEntity
8
0
100
AcDbPolyline
90
34
70
1
43
0.0
10
-147.49999712977859
20
172.9999991044113
42
0.41421356237309243
10
-149.49999712977859
20
170.9999991044113
10
-149.49999712977859
20
157.9999991044113
10
-167.49999712977854
20
157.99999910441124
42
0.41421356237309503
10
-169.49999712977854
20
155.99999910441124
10
-169.49999712977845
20
-62.100000895588678
42
0.41421356237309503
10
-167.49999712977848
20
-64.100000895588678
10
-154.05699423276957
20
-64.100000895588678
42
-0.19891236737965801
10
-152.64278067039646
20
-64.685787333215586
10
-148.18578356740534
20
-69.142784436206696
42
-0.19891236737965881
10
-147.59999712977844
20
-70.556997998579789
10
-147.59999712977847
20
-84.000000895588698
42
0.41421356237309243
10
-145.5999971297785
20
-86.000000895588684
10
-45.499997129778471
20
-86.00000089558867
42
0.41421356237309631
10
-43.499997129778464
20
-84.00000089558867
10
-43.499997129778471
20
-64.00000089558867
42
-0.41421356237309503
10
-41.499997129778464
20
-62.00000089558867
10
41.500002870221536
20
-62.00000089558867
42
-0.41421356237309503
10
43.500002870221543
20
-64.00000089558867
10
43.500002870221543
20
-84.00000089558867
42
0.41421356237309503
10
45.500002870221536
20
-86.000000895588684
10
145.60000287022154
20
-86.000000895588684
42
0.41421356237309503
10
147.60000287022154
20
-84.000000895588698
10
147.60000287022152
20
-70.556997998579774
42
-0.19891236737965881
10
148.18578930784844
20
-69.142784436206682
10
152.64278641083956
20
-64.685787333215572
42
-0.1989123673796572
10
154.05699997321267
20
-64.100000895588664
10
167.50000287022152
20
-64.100000895588664
42
0.41421356237309503
10
169.50000287022152
20
-62.100000895588664
10
169.50000287022158
20
155.9999991044113
42
0.41421356237309764
10
167.50000287022158
20
157.9999991044113
10
149.50000287022158
20
157.99999910441127
10
149.50000287022158
20
170.99999910441127
42
0.41421356237309503
10
147.50000287022158
20
172.99999910441127
0
ENDSEC
0
SECTION
2
OBJECTS
0
DICTIONARY
5
C
100
AcDbDictionary
3
ACAD_GROUP
350
D
3
ACAD_MLINESTYLE
350
17
0
DICTIONARY
5
D
100
AcDbDictionary
0
DICTIONARY
5
1A
330
C
100
AcDbDictionary
0
DICTIONARY
5
17
100
AcDbDictionary
0
ENDSEC
0
EOF
