0
SECTION
2
HEADER
9
$INSUNITS
70
4
9
$ACADVER
1
AC1014
9
$HANDSEED
5
FFFF
0
ENDSEC
0
SECTION
2
TABLES
0
TABLE
2
VPORT
5
8
100
AcDbSymbolTable
0
ENDTAB
0
TABLE
2
LTYPE
5
5
100
AcDbSymbolTable
0
LTYPE
5
14
100
AcDbSymbolTableRecord
100
AcDbLinetypeTableRecord
2
BYBLOCK
70
0
0
LTYPE
5
15
100
AcDbSymbolTableRecord
100
AcDbLinetypeTableRecord
2
BYLAYER
70
0
0
ENDTAB
0
TABLE
2
LAYER
5
2
100
AcDbSymbolTable
70
2
0
LAYER
5
50
100
AcDbSymbolTableRecord
100
AcDbLayerTableRecord
2
0
70
0
6
CONTINUOUS
0
ENDTAB
0
TABLE
2
STYLE
5
3
100
AcDbSymbolTable
70
1
0
STYLE
5
11
100
AcDbSymbolTableRecord
100
AcDbTextStyleTableRecord
2
STANDARD
70
0
0
ENDTAB
0
TABLE
2
VIEW
5
6
100
AcDbSymbolTable
70
0
0
ENDTAB
0
TABLE
2
UCS
5
7
100
AcDbSymbolTable
70
0
0
ENDTAB
0
TABLE
2
APPID
5
9
100
AcDbSymbolTable
70
2
0
APPID
5
12
100
AcDbSymbolTableRecord
100
AcDbRegAppTableRecord
2
ACAD
70
0
0
ENDTAB
0
TABLE
2
DIMSTYLE
5
A
100
AcDbSymbolTable
70
1
0
ENDTAB
0
TABLE
2
BLOCK_RECORD
5
1
100
AcDbSymbolTable
70
1
0
BLOCK_RECORD
5
1F
100
AcDbSymbolTableRecord
100
AcDbBlockTableRecord
2
*MODEL_SPACE
0
BLOCK_RECORD
5
1B
100
AcDbSymbolTableRecord
100
AcDbBlockTableRecord
2
*PAPER_SPACE
0
ENDTAB
0
ENDSEC
0
SECTION
2
BLOCKS
0
BLOCK
5
20
100
AcDbEntity
100
AcDbBlockBegin
2
*MODEL_SPACE
0
ENDBLK
5
21
100
AcDbEntity
100
AcDbBlockEnd
0
BLOCK
5
1C
100
AcDbEntity
100
AcDbBlockBegin
2
*PAPER_SPACE
0
ENDBLK
5
1D
100
AcDbEntity
100
AcDbBlockEnd
0
ENDSEC
0
SECTION
2
ENTITIES
0
LWPOLYLINE
5
100
100
AcDbEntity
8
0
100
AcDbPolyline
90
34
70
1
43
0.0
10
-147.59999999999999
20
-84.000000000000028
42
0.41421356237310281
10
-145.60000000000002
20
-86.000000000000014
10
-45.500000000000007
20
-86
42
0.41421356237309637
10
-43.5
20
-84
10
-43.500000000000007
20
-64
42
-0.41421356237309243
10
-41.5
20
-62
10
41.5
20
-62
42
-0.41421356237309243
10
43.500000000000007
20
-64
10
43.500000000000007
20
-84
42
0.41421356237309509
10
45.5
20
-86.000000000000014
10
145.60000000000002
20
-86.000000000000014
42
0.41421356237309509
10
147.60000000000002
20
-84.000000000000028
10
147.59999999999997
20
-70.556997102991104
42
-0.19891236737965881
10
148.18578643762689
20
-69.142783540618012
10
152.64278354061804
20
-64.685786437626902
42
-0.19891236737965717
10
154.05699710299112
20
-64.099999999999994
10
167.5
20
-64.099999999999994
42
0.41421356237309637
10
169.5
20
-62.099999999999994
10
169.50000000000003
20
155.99999999999997
42
0.4142135623730977
10
167.50000000000003
20
157.99999999999997
10
154.50000000000003
20
157.99999999999994
10
154.50000000000003
20
170.99999999999994
42
0.4142135623730977
10
152.50000000000003
20
172.99999999999989
10
-152.50000000000014
20
172.99999999999997
42
0.4142135623730977
10
-154.50000000000011
20
171
10
-154.50000000000011
20
157.99999999999994
10
-167.50000000000006
20
157.99999999999991
42
0.4142135623730977
10
-169.50000000000003
20
155.99999999999991
10
-169.5
20
-62.100000000000009
42
0.41421356237309637
10
-167.5
20
-64.100000000000009
10
-154.05699710299109
20
-64.100000000000009
42
-0.19891236737965798
10
-152.64278354061801
20
-64.685786437626916
10
-148.18578643762689
20
-69.142783540618026
42
-0.19891236737965881
10
-147.59999999999997
20
-70.556997102991119
0
ENDSEC
0
SECTION
2
OBJECTS
0
DICTIONARY
5
C
100
AcDbDictionary
3
ACAD_GROUP
350
D
3
ACAD_MLINESTYLE
350
17
0
DICTIONARY
5
D
100
AcDbDictionary
0
DICTIONARY
5
1A
330
C
100
AcDbDictionary
0
DICTIONARY
5
17
100
AcDbDictionary
0
ENDSEC
0
EOF
